# xmcd
#
# Track frame offsets:
#	150
#	18315
#	35540
#	52165
#	68052
#	83752
#	102550
#	123090
#	141125
#	162222
#	183927
#	195730
#	213177
#	228477
#	245680
#	265637
#	281560
#	293830
#
# Disc length: 4110 seconds
#
# Revision: 3
# Processed by: cddbd v1.5.1PL0 Copyright (c) Steve Scherf et al.
# Submitted via: audiograbber 1.83.01
#
DISCID=02100c12
DTITLE=Various Artist - Women In Country
DYEAR=1997
DGENRE=Country
TTITLE0=Mary-Chapin Carpenter - He Thinks He'll Keep Her
TTITLE1=Reba McEntire - Till You Love Me
TTITLE2=LeAnn Rimes - One Way Ticket (Because I Can)
TTITLE3=Emmylou Harris - Crescent City
TTITLE4=Kathy Mattea - Walking Away A Winner
TTITLE5=Nanci Griffith - From A Distance
TTITLE6=Patty Loveless - Lonely Too Long
TTITLE7=Faith Hill - Piece Of My Heart
TTITLE8=Trisha Yearwood - On A Bus To St. Cloud
TTITLE9=Wynonna - To Be Loved By You
TTITLE10=Suzy Boguss - Give Me Some Wheels
TTITLE11=Judds - Love Can Build A Bridge
TTITLE12=Iris DeMent - I'll Take My Sorrow Straight
TTITLE13=Gretchen Peters - I Ain't Ever Satisfied
TTITLE14=Angela Kasset - Something In Red
TTITLE15=Dolly Parton - Romeo
TTITLE16=JoDee Messina - Do You Wanna Make Something Of It
TTITLE17=Mary Black - Past The Point Of Rescue
EXTD=
EXTT0=
EXTT1=
EXTT2=
EXTT3=
EXTT4=
EXTT5=
EXTT6=
EXTT7=
EXTT8=
EXTT9=
EXTT10=
EXTT11=
EXTT12=
EXTT13=
EXTT14=
EXTT15=
EXTT16=
EXTT17=
PLAYORDER=
